<svg xmlns="http://www.w3.org/2000/svg" viewBox="0 0 560 560" fill="none" aria-hidden="true">
  <defs>
    <linearGradient id="bg" x1="0%" y1="0%" x2="100%" y2="100%">
      <stop offset="0%" style="stop-color:#e0f2fe"/>
      <stop offset="45%" style="stop-color:#fce7f3"/>
      <stop offset="100%" style="stop-color:#fef3c7"/>
    </linearGradient>
    <linearGradient id="moon" x1="0%" y1="0%" x2="0%" y2="100%">
      <stop offset="0%" style="stop-color:#fffbeb"/>
      <stop offset="100%" style="stop-color:#fde68a"/>
    </linearGradient>
  </defs>
  <rect width="560" height="560" rx="32" fill="url(#bg)"/>
  <circle cx="420" cy="120" r="48" fill="url(#moon)" opacity="0.9"/>
  <circle cx="404" cy="108" r="8" fill="#fcd34d" opacity="0.35"/>
  <ellipse cx="280" cy="520" rx="220" ry="36" fill="#bfdbfe" opacity="0.35"/>
  <path d="M120 380c40-120 140-180 240-140 80 32 120 100 100 200H120z" fill="#93c5fd" opacity="0.25"/>
  <g transform="translate(160 140)">
    <ellipse cx="120" cy="200" rx="88" ry="100" fill="#f9a8d4" opacity="0.45"/>
    <circle cx="120" cy="120" r="72" fill="#fecdd3"/>
    <path d="M72 112c12-28 36-44 60-48 28-4 56 8 72 32" stroke="#f472b6" stroke-width="6" stroke-linecap="round"/>
    <circle cx="96" cy="108" r="10" fill="#1e293b"/>
    <circle cx="148" cy="108" r="10" fill="#1e293b"/>
    <ellipse cx="122" cy="138" rx="8" ry="5" fill="#f472b6" opacity="0.5"/>
    <ellipse cx="120" cy="220" rx="100" ry="90" fill="#bfdbfe" opacity="0.55"/>
    <ellipse cx="120" cy="230" rx="70" ry="55" fill="#fef9c3" opacity="0.9"/>
    <circle cx="120" cy="210" r="38" fill="#fde68a"/>
    <path d="M98 200c8-12 24-18 38-16 14 2 26 12 30 26" stroke="#f59e0b" stroke-width="4" stroke-linecap="round" opacity="0.6"/>
    <ellipse cx="95" cy="218" rx="10" ry="8" fill="#fcd34d"/>
    <ellipse cx="145" cy="218" rx="10" ry="8" fill="#fcd34d"/>
  </g>
  <g opacity="0.5" stroke="#64748b" stroke-width="3" stroke-linecap="round">
    <path d="M80 420l24-20M104 420l-24-20"/>
    <path d="M440 400l20-16M460 400l-20-16"/>
    <path d="M360 440l18-14M378 440l-18-14"/>
  </g>
</svg>
